<svg width="20" xmlns="http://www.w3.org/2000/svg" height="19.996" id="screenshot-e5dd0007-31db-8030-8007-308d54d6922d" viewBox="0 0 20 19.996" xmlns:xlink="http://www.w3.org/1999/xlink" fill="none" version="1.1"><g id="shape-e5dd0007-31db-8030-8007-308d54d6922d" width="16" height="16" class="bi bi-cloud-hail" rx="0" ry="0" style="fill: rgb(0, 0, 0);"><g id="shape-e5dd0007-31db-8030-8007-308d54d6da51" style="display: none;"><g class="fills" id="fills-e5dd0007-31db-8030-8007-308d54d6da51"><rect width="19.99559229515961" height="19.995592295159668" x="0" transform="matrix(1.000000, 0.000000, 0.000000, 1.000000, 0.000000, 0.000000)" style="fill: rgb(246, 246, 247); fill-opacity: 1;" ry="0" fill="none" rx="0" y="0"/></g></g><g id="shape-e5dd0007-31db-8030-8007-308d54d725e6"><g class="fills" id="fills-e5dd0007-31db-8030-8007-308d54d725e6"><path d="M16.7525634765625,5.657476425170898C16.219879150390625,2.9721734523773193,14.001556396484375,0.9461724758148193,11.279052734375,0.6584527492523193C8.55657958984375,0.3706109821796417,5.963714599609375,1.8881890773773193,4.881439208984375,4.402715682983398C3.270294189453125,4.217168807983398,1.688751220703125,4.938238143920898,0.772216796875,6.276250839233398C-0.144287109375,7.614141464233398,-0.2452392578125,9.349493026733398,0.5098876953125,10.784673690795898C1.2650146484375,12.219854354858398,2.75225830078125,13.119512557983398,4.3740234375,13.122076034545898L16.246429443359375,13.122076034545898C18.220245361328125,13.124395370483398,19.857757568359375,11.595830917358398,19.99127197265625,9.626592636108398C20.12481689453125,7.657354354858398,18.7086181640625,5.921758651733398,16.7525634765625,5.657476425170898M10.622650146484375,1.8746392726898193C13.168670654296875,1.8741509914398193,15.308319091796875,3.7871148586273193,15.591583251953125,6.317388534545898C15.626739501953125,6.635381698608398,15.896453857421875,6.875494003295898,16.2164306640625,6.873540878295898L16.246429443359375,6.873540878295898C17.6268310546875,6.873785018920898,18.74560546875,7.993047714233398,18.745269775390625,9.373540878295898C18.744903564453125,10.754034042358398,17.625579833984375,11.872686386108398,16.245147705078125,11.872442245483398L4.3740234375,11.872442245483398C3.166748046875,11.871831893920898,2.067840576171875,11.175664901733398,1.551483154296875,10.084478378295898C1.035125732421875,8.993047714233398,1.193695068359375,7.702032089233398,1.95880126953125,6.768072128295898C2.723907470703125,5.834112167358398,3.95855712890625,5.424688339233398,5.130126953125,5.716192245483398C5.447784423828125,5.795537948608398,5.772735595703125,5.616094589233398,5.87493896484375,5.305059432983398C6.55169677734375,3.2570855617523193,8.465728759765625,1.8741509914398193,10.622650146484375,1.8746392726898193M4.68646240234375,19.0583553314209C4.68646240234375,19.5759334564209,4.266815185546875,19.9956111907959,3.749176025390625,19.9956111907959C3.23150634765625,19.9956111907959,2.8118896484375,19.5759334564209,2.8118896484375,19.0583553314209C2.8118896484375,18.5406551361084,3.23150634765625,18.1209774017334,3.749176025390625,18.1209774017334C4.266815185546875,18.1209774017334,4.68646240234375,18.5406551361084,4.68646240234375,19.0583553314209M5.19635009765625,14.404302597045898C5.523345947265625,14.513555526733398,5.700042724609375,14.867071151733398,5.591278076171875,15.194097518920898L4.966400146484375,17.0687313079834C4.90234375,17.2885799407959,4.72320556640625,17.4555721282959,4.499542236328125,17.5044002532959C4.275909423828125,17.5531063079834,4.043487548828125,17.4755916595459,3.893798828125,17.3023738861084C3.744110107421875,17.1292781829834,3.701080322265625,16.8880672454834,3.78167724609375,16.6738338470459L4.406524658203125,14.799322128295898C4.51580810546875,14.472173690795898,4.869232177734375,14.295537948608398,5.19635009765625,14.404302597045898M9.68536376953125,19.0583553314209C9.68536376953125,19.5759334564209,9.265716552734375,19.9956111907959,8.748077392578125,19.9956111907959C8.23040771484375,19.9956111907959,7.810791015625,19.5759334564209,7.810791015625,19.0583553314209C7.810791015625,18.5406551361084,8.23040771484375,18.1209774017334,8.748077392578125,18.1209774017334C9.265716552734375,18.1209774017334,9.68536376953125,18.5406551361084,9.68536376953125,19.0583553314209M10.19525146484375,14.404302597045898C10.522247314453125,14.513555526733398,10.698944091796875,14.867071151733398,10.590179443359375,15.194097518920898L9.965301513671875,17.0687313079834C9.901214599609375,17.2885799407959,9.72210693359375,17.4555721282959,9.498443603515625,17.5044002532959C9.274810791015625,17.5531063079834,9.042388916015625,17.4755916595459,8.8927001953125,17.3023738861084C8.743011474609375,17.1292781829834,8.699981689453125,16.8880672454834,8.78057861328125,16.6738338470459L9.405426025390625,14.799322128295898C9.51470947265625,14.472173690795898,9.868133544921875,14.295537948608398,10.19525146484375,14.404302597045898M14.68426513671875,19.0583553314209C14.68426513671875,19.5759334564209,14.264617919921875,19.9956111907959,13.746978759765625,19.9956111907959C13.22930908203125,19.9956111907959,12.809661865234375,19.5759334564209,12.809661865234375,19.0583553314209C12.809661865234375,18.5406551361084,13.22930908203125,18.1209774017334,13.746978759765625,18.1209774017334C14.264617919921875,18.1209774017334,14.68426513671875,18.5406551361084,14.68426513671875,19.0583553314209M15.19415283203125,14.404302597045898C15.521148681640625,14.513555526733398,15.697845458984375,14.867071151733398,15.58905029296875,15.194097518920898L14.964202880859375,17.0687313079834C14.900115966796875,17.2885799407959,14.720977783203125,17.4555721282959,14.497344970703125,17.5044002532959C14.273712158203125,17.5531063079834,14.041290283203125,17.4755916595459,13.8916015625,17.3023738861084C13.74188232421875,17.1292781829834,13.698883056640625,16.8880672454834,13.779449462890625,16.6738338470459L14.404327392578125,14.799322128295898C14.513580322265625,14.472173690795898,14.867034912109375,14.295537948608398,15.19415283203125,14.404302597045898" style="fill: rgb(246, 246, 247); fill-opacity: 1;"/></g></g></g></svg>