<svg width="20" xmlns="http://www.w3.org/2000/svg" height="20.018" id="screenshot-e5dd0007-31db-8030-8007-308d54e387ea" viewBox="0 0 20 20.018" xmlns:xlink="http://www.w3.org/1999/xlink" fill="none" version="1.1"><g id="shape-e5dd0007-31db-8030-8007-308d54e387ea" width="16" height="16" class="bi bi-cloud-drizzle" rx="0" ry="0" style="fill: rgb(0, 0, 0);"><g id="shape-e5dd0007-31db-8030-8007-308d54e3e6ae" style="display: none;"><g class="fills" id="fills-e5dd0007-31db-8030-8007-308d54e3e6ae"><rect width="19.995592295159554" height="19.995592295159668" x="0" transform="matrix(1.000000, 0.000000, 0.000000, 1.000000, 0.000000, 0.000000)" style="fill: rgb(246, 246, 247); fill-opacity: 1;" ry="0" fill="none" rx="0" y="0"/></g></g><g id="shape-e5dd0007-31db-8030-8007-308d54e4b356"><g class="fills" id="fills-e5dd0007-31db-8030-8007-308d54e4b356"><path d="M5.19635009765625,15.027938842773438C5.353668212890625,15.080429077148438,5.48370361328125,15.193222045898438,5.557769775390625,15.341659545898438C5.6318359375,15.490097045898438,5.643890380859375,15.661605834960938,5.591278076171875,15.818954467773438L4.966400146484375,17.693588256835938C4.848175048828125,18.007919311523438,4.5025634765625,18.172714233398438,4.1839599609375,18.066390991210938C3.86529541015625,17.960189819335938,3.6876220703125,17.621078491210938,3.78167724609375,17.298690795898438L4.406524658203125,15.424179077148438C4.5152587890625,15.096542358398438,4.86883544921875,14.919174194335938,5.19635009765625,15.027938842773438M12.6947021484375,15.027938842773438C12.852020263671875,15.080429077148438,12.9820556640625,15.193222045898438,13.056121826171875,15.341659545898438C13.13018798828125,15.490097045898438,13.142242431640625,15.661605834960938,13.089599609375,15.818954467773438L12.464752197265625,17.693588256835938C12.346527099609375,18.007919311523438,12.00091552734375,18.172714233398438,11.68231201171875,18.066390991210938C11.3636474609375,17.960189819335938,11.18597412109375,17.621078491210938,11.280029296875,17.298690795898438L11.904876708984375,15.424179077148438C12.01361083984375,15.096542358398438,12.3671875,14.919174194335938,12.6947021484375,15.027938842773438M8.320648193359375,16.902572631835938C8.47796630859375,16.955062866210938,8.6080322265625,17.067733764648438,8.682098388671875,17.216171264648438C8.75616455078125,17.364608764648438,8.768218994140625,17.536239624023438,8.715576171875,17.693588256835938L8.090728759765625,19.568099975585938C7.97247314453125,19.882553100585938,7.626861572265625,20.047348022460938,7.308258056640625,19.940902709960938C6.9896240234375,19.834823608398438,6.811920166015625,19.495712280273438,6.905975341796875,19.173324584960938L7.530853271484375,17.298690795898438C7.63958740234375,16.971176147460938,7.9931640625,16.793807983398438,8.320648193359375,16.902572631835938M15.819000244140625,16.902572631835938C15.976318359375,16.955062866210938,16.10638427734375,17.067733764648438,16.180450439453125,17.216171264648438C16.2545166015625,17.364608764648438,16.266571044921875,17.536239624023438,16.21392822265625,17.693588256835938L15.58905029296875,19.568099975585938C15.524993896484375,19.787948608398438,15.345855712890625,19.954940795898438,15.122222900390625,20.003768920898438C14.8985595703125,20.052474975585938,14.6661376953125,19.974960327148438,14.516448974609375,19.801864624023438C14.36676025390625,19.628646850585938,14.32373046875,19.387435913085938,14.404327392578125,19.173324584960938L15.0291748046875,17.298690795898438C15.137908935546875,16.971176147460938,15.49151611328125,16.793807983398438,15.819000244140625,16.902572631835938M16.7525634765625,6.2823333740234375C16.219879150390625,3.5970304012298584,14.001556396484375,1.5710294246673584,11.279052734375,1.2833096981048584C8.55657958984375,0.9953458905220032,5.963714599609375,2.5130460262298584,4.881439208984375,5.0275726318359375C3.270294189453125,4.8420257568359375,1.688751220703125,5.5629730224609375,0.772216796875,6.9011077880859375C-0.144287109375,8.238998413085938,-0.2452392578125,9.974227905273438,0.5098876953125,11.409530639648438C1.2650146484375,12.844711303710938,2.75225830078125,13.744369506835938,4.3740234375,13.746932983398438L16.246429443359375,13.746932983398438C18.220245361328125,13.749252319335938,19.857757568359375,12.220687866210938,19.99127197265625,10.251449584960938C20.12481689453125,8.282211303710938,18.7086181640625,6.5464935302734375,16.7525634765625,6.2823333740234375M10.622650146484375,2.4993741512298584C13.168670654296875,2.4990079402923584,15.308319091796875,4.4119720458984375,15.591583251953125,6.9422454833984375C15.626739501953125,7.2602386474609375,15.896453857421875,7.5003509521484375,16.2164306640625,7.4982757568359375L16.246429443359375,7.4982757568359375C17.6268310546875,7.4982757568359375,18.745880126953125,8.617294311523438,18.745880126953125,9.997787475585938C18.745880126953125,11.378280639648438,17.6268310546875,12.497177124023438,16.246429443359375,12.497177124023438L4.3740234375,12.497177124023438C3.166748046875,12.496566772460938,2.067840576171875,11.800521850585938,1.551483154296875,10.709335327148438C1.035125732421875,9.617904663085938,1.193695068359375,8.326889038085938,1.95880126953125,7.3929290771484375C2.723907470703125,6.4589691162109375,3.95855712890625,6.0495452880859375,5.130126953125,6.3410491943359375C5.447784423828125,6.4203948974609375,5.772735595703125,6.2409515380859375,5.87493896484375,5.9299163818359375C6.55169677734375,3.8818204402923584,8.465728759765625,2.4990079402923584,10.622650146484375,2.4993741512298584" style="fill: rgb(246, 246, 247); fill-opacity: 1;"/></g></g></g></svg>