<svg width="20" xmlns="http://www.w3.org/2000/svg" height="19.997" id="screenshot-e5dd0007-31db-8030-8007-308d54d136f0" viewBox="0 0 20 19.997" xmlns:xlink="http://www.w3.org/1999/xlink" fill="none" version="1.1"><g id="shape-e5dd0007-31db-8030-8007-308d54d136f0" width="16" height="16" class="bi bi-cloud-lightning-rain" rx="0" ry="0" style="fill: rgb(0, 0, 0);"><g id="shape-e5dd0007-31db-8030-8007-308d54d1b704" style="display: none;"><g class="fills" id="fills-e5dd0007-31db-8030-8007-308d54d1b704"><rect width="19.995592295159554" height="19.995592295159668" x="0" transform="matrix(1.000000, 0.000000, 0.000000, 1.000000, 0.000000, 0.000000)" style="fill: rgb(246, 246, 247); fill-opacity: 1;" ry="0" fill="none" rx="0" y="0.001316289073201915"/></g></g><g id="shape-e5dd0007-31db-8030-8007-308d54d23e91"><g class="fills" id="fills-e5dd0007-31db-8030-8007-308d54d23e91"><path d="M3.321746826171875,13.7808837890625C3.64874267578125,13.8900146484375,3.825439453125,14.2435302734375,3.7166748046875,14.570556640625L3.091827392578125,16.4451904296875C3.027740478515625,16.6650390625,2.848602294921875,16.83203125,2.624969482421875,16.880859375C2.40130615234375,16.9295654296875,2.168914794921875,16.85205078125,2.019195556640625,16.678955078125C1.8695068359375,16.5057373046875,1.826507568359375,16.2645263671875,1.907073974609375,16.0504150390625L2.531951904296875,14.17578125C2.641204833984375,13.8487548828125,2.99462890625,13.672119140625,3.321746826171875,13.7808837890625M15.19415283203125,13.7808837890625C15.521148681640625,13.8900146484375,15.697845458984375,14.2435302734375,15.58905029296875,14.570556640625L14.964202880859375,16.4451904296875C14.900115966796875,16.6650390625,14.720977783203125,16.83203125,14.497344970703125,16.880859375C14.273712158203125,16.9295654296875,14.041290283203125,16.85205078125,13.8916015625,16.678955078125C13.74188232421875,16.5057373046875,13.698883056640625,16.2645263671875,13.779449462890625,16.0504150390625L14.404327392578125,14.17578125C14.513580322265625,13.8487548828125,14.867034912109375,13.672119140625,15.19415283203125,13.7808837890625M5.821197509765625,15.6553955078125C6.148193359375,15.7646484375,6.32489013671875,16.1181640625,6.21612548828125,16.4451904296875L5.591278076171875,18.31982421875C5.527191162109375,18.5396728515625,5.348052978515625,18.7066650390625,5.124420166015625,18.7554931640625C4.9007568359375,18.80419921875,4.668365478515625,18.7266845703125,4.518646240234375,18.553466796875C4.36895751953125,18.38037109375,4.325958251953125,18.13916015625,4.406524658203125,17.9249267578125L5.031402587890625,16.0504150390625C5.140655517578125,15.7232666015625,5.49407958984375,15.546630859375,5.821197509765625,15.6553955078125M17.693572998046875,15.6553955078125C18.020599365234375,15.7646484375,18.197296142578125,16.1181640625,18.0885009765625,16.4451904296875L17.463653564453125,18.31982421875C17.399566650390625,18.5396728515625,17.220428466796875,18.7066650390625,16.996795654296875,18.7554931640625C16.773162841796875,18.80419921875,16.540740966796875,18.7266845703125,16.39105224609375,18.553466796875C16.2413330078125,18.38037109375,16.198333740234375,18.13916015625,16.278900146484375,17.9249267578125L16.903778076171875,16.0504150390625C17.013031005859375,15.7232666015625,17.366485595703125,15.546630859375,17.693572998046875,15.6553955078125M16.7525634765625,5.033935546875C16.219879150390625,2.3487548828125,14.001556396484375,0.3226318359375,11.279052734375,0.034912109375C8.55657958984375,-0.2529296875,5.963714599609375,1.2646484375,4.881439208984375,3.7791748046875C3.270294189453125,3.59375,1.688751220703125,4.314697265625,0.772216796875,5.6527099609375C-0.144287109375,6.9906005859375,-0.2452392578125,8.7259521484375,0.5098876953125,10.1611328125C1.2650146484375,11.596435546875,2.75225830078125,12.4959716796875,4.3740234375,12.4986572265625L16.246429443359375,12.4986572265625C18.220245361328125,12.5008544921875,19.857757568359375,10.9722900390625,19.99127197265625,9.003173828125C20.12481689453125,7.0338134765625,18.7086181640625,5.2982177734375,16.7525634765625,5.033935546875M10.622650146484375,1.2510986328125C13.168670654296875,1.2506103515625,15.308319091796875,3.1636962890625,15.591583251953125,5.6939697265625C15.626739501953125,6.0118408203125,15.896453857421875,6.251953125,16.2164306640625,6.25L16.246429443359375,6.25C17.6268310546875,6.25,18.745880126953125,7.3690185546875,18.745880126953125,8.7493896484375C18.745880126953125,10.1298828125,17.6268310546875,11.2489013671875,16.246429443359375,11.2489013671875L4.3740234375,11.2489013671875C3.166748046875,11.248291015625,2.067840576171875,10.5521240234375,1.551483154296875,9.4609375C1.035125732421875,8.36962890625,1.193695068359375,7.0784912109375,1.95880126953125,6.14453125C2.723907470703125,5.210693359375,3.95855712890625,4.8011474609375,5.130126953125,5.0927734375C5.447784423828125,5.1719970703125,5.772735595703125,4.99267578125,5.87493896484375,4.681640625C6.55169677734375,2.633544921875,8.465728759765625,1.2506103515625,10.622650146484375,1.2510986328125M8.8143310546875,14.09326171875C8.92022705078125,13.8818359375,9.136474609375,13.748291015625,9.3729248046875,13.748291015625L10.622650146484375,13.748291015625C10.82342529296875,13.74853515625,11.011871337890625,13.8450927734375,11.129180908203125,14.0079345703125C11.24652099609375,14.1708984375,11.2784423828125,14.3802490234375,11.21502685546875,14.570556640625L10.8651123046875,15.6229248046875L11.87237548828125,15.6229248046875C12.1123046875,15.623291015625,12.33087158203125,15.760986328125,12.434783935546875,15.977294921875C12.53863525390625,16.1934814453125,12.509490966796875,16.4501953125,12.35980224609375,16.6376953125L9.8603515625,19.7620849609375C9.6766357421875,19.990234375,9.3590087890625,20.0601806640625,9.096435546875,19.9302978515625C8.833892822265625,19.80029296875,8.696807861328125,19.5054931640625,8.766845703125,19.220947265625L9.197967529296875,17.49755859375L8.123199462890625,17.49755859375C7.90655517578125,17.49755859375,7.705352783203125,17.38525390625,7.591552734375,17.200927734375C7.47772216796875,17.0164794921875,7.467529296875,16.7864990234375,7.564605712890625,16.5927734375Z" style="fill: rgb(246, 246, 247); fill-opacity: 1;"/></g></g></g></svg>