<svg width="20" xmlns="http://www.w3.org/2000/svg" height="20" id="screenshot-e5dd0007-31db-8030-8007-308de276545f" viewBox="0 0 20 20" xmlns:xlink="http://www.w3.org/1999/xlink" fill="none" version="1.1"><g id="shape-e5dd0007-31db-8030-8007-308de276545f" width="16" height="16" class="bi bi-github" rx="0" ry="0" style="fill: rgb(0, 0, 0);"><g id="shape-e5dd0007-31db-8030-8007-308de2765460" style="display: none;"><g class="fills" id="fills-e5dd0007-31db-8030-8007-308de2765460"><rect width="20" height="20" x="0" transform="matrix(1.000000, 0.000000, 0.000000, 1.000000, 0.000000, 0.000000)" style="fill: rgb(246, 246, 247); fill-opacity: 1;" ry="0" fill="none" rx="0" y="0"/></g></g><g id="shape-e5dd0007-31db-8030-8007-308de2765461"><g class="fills" id="fills-e5dd0007-31db-8030-8007-308de2765461"><path d="M10,0C4.4749755859375,0,0,4.4749755859375,0,10C0,14.425048828125,2.862518310546875,18.16253662109375,6.837493896484375,19.4874267578125C7.337493896484375,19.5750732421875,7.524993896484375,19.2750244140625,7.524993896484375,19.012451171875C7.524993896484375,18.7750244140625,7.51251220703125,17.987548828125,7.51251220703125,17.14996337890625C5,17.6124267578125,4.350006103515625,16.5374755859375,4.1500244140625,15.97503662109375C4.037506103515625,15.68756103515625,3.54998779296875,14.7999267578125,3.125,14.5625C2.774993896484375,14.375,2.2750244140625,13.9124755859375,3.11248779296875,13.9000244140625C3.899993896484375,13.887451171875,4.4625244140625,14.62493896484375,4.649993896484375,14.9249267578125C5.54998779296875,16.4375,6.98748779296875,16.0125732421875,7.5625,15.75C7.649993896484375,15.0999755859375,7.9124755859375,14.6624755859375,8.20001220703125,14.41253662109375C5.975006103515625,14.1624755859375,3.6500244140625,13.300048828125,3.6500244140625,9.4749755859375C3.6500244140625,8.387451171875,4.037506103515625,7.48748779296875,4.67498779296875,6.78759765625C4.57501220703125,6.5374755859375,4.225006103515625,5.5125732421875,4.7750244140625,4.1375732421875C4.7750244140625,4.1375732421875,5.61248779296875,3.875,7.524993896484375,5.1624755859375C8.32501220703125,4.93743896484375,9.17498779296875,4.824951171875,10.024993896484375,4.824951171875C10.875,4.824951171875,11.725006103515625,4.93743896484375,12.524993896484375,5.1624755859375C14.4375,3.8624267578125,15.274993896484375,4.1375732421875,15.274993896484375,4.1375732421875C15.82501220703125,5.5125732421875,15.475006103515625,6.5374755859375,15.375,6.78759765625C16.01251220703125,7.48748779296875,16.399993896484375,8.37493896484375,16.399993896484375,9.4749755859375C16.399993896484375,13.3125,14.0625,14.1624755859375,11.837493896484375,14.41253662109375C12.20001220703125,14.72503662109375,12.51251220703125,15.32501220703125,12.51251220703125,16.26251220703125C12.51251220703125,17.5999755859375,12.5,18.6749267578125,12.5,19.012451171875C12.5,19.2750244140625,12.6875,19.5875244140625,13.1875,19.4874267578125C17.2587890625,18.11431884765625,20.00006103515625,14.29656982421875,20,10C20,4.4749755859375,15.5250244140625,0,10,0" style="fill: rgb(246, 246, 247); fill-opacity: 1;"/></g></g></g></svg>