<svg width="20" xmlns="http://www.w3.org/2000/svg" height="20" id="screenshot-e5dd0007-31db-8030-8007-308d54eb9a0b" viewBox="0 0 20 20" xmlns:xlink="http://www.w3.org/1999/xlink" fill="none" version="1.1"><g id="shape-e5dd0007-31db-8030-8007-308d54eb9a0b" width="16" height="16" class="bi bi-cloud" rx="0" ry="0" style="fill: rgb(0, 0, 0);"><g id="shape-e5dd0007-31db-8030-8007-308d54ebe6c5" style="display: none;"><g class="fills" id="fills-e5dd0007-31db-8030-8007-308d54ebe6c5"><rect width="20" height="20" x="0" transform="matrix(1.000000, 0.000000, 0.000000, 1.000000, 0.000000, 0.000000)" style="fill: rgb(246, 246, 247); fill-opacity: 1;" ry="0" fill="none" rx="0" y="0"/></g></g><g id="shape-e5dd0007-31db-8030-8007-308d54ec2d10"><g class="fills" id="fills-e5dd0007-31db-8030-8007-308d54ec2d10"><path d="M5.50750732421875,4.17755126953125C6.756866455078125,3.10009765625,8.35028076171875,2.50518798828125,10,2.5C13.36248779296875,2.5,16.15374755859375,5,16.45751953125,8.2237548828125C18.447509765625,8.50494384765625,20,10.17120361328125,20,12.2161865234375C20,14.461181640625,18.12750244140625,16.25,15.8587646484375,16.25L4.72625732421875,16.25C2.135009765625,16.25,0,14.20745849609375,0,11.6474609375C0,9.44384765625,1.582489013671875,7.61871337890625,3.677490234375,7.15625C3.856231689453125,6.07757568359375,4.550018310546875,5.00244140625,5.50750732421875,4.17755126953125M6.32373046875,5.123779296875C5.37750244140625,5.93994140625,4.88250732421875,6.9237060546875,4.88250732421875,7.69378662109375L4.88250732421875,8.2537841796875L4.32623291015625,8.31494140625C2.579986572265625,8.50634765625,1.25,9.9400634765625,1.25,11.6474609375C1.25,13.4813232421875,2.787506103515625,15,4.72625732421875,15L15.8587646484375,15C17.475006103515625,15,18.75,13.73504638671875,18.75,12.2161865234375C18.75,10.6962890625,17.475006103515625,9.4312744140625,15.8587646484375,9.4312744140625L15.2337646484375,9.4312744140625L15.2337646484375,8.8062744140625C15.2349853515625,6.03118896484375,12.910003662109375,3.75,10,3.75C8.64984130859375,3.75537109375,7.346038818359375,4.2430419921875,6.32373046875,5.125Z" style="fill: rgb(246, 246, 247); fill-opacity: 1;"/></g></g></g></svg>