<svg width="20" xmlns="http://www.w3.org/2000/svg" height="20" id="screenshot-e5dd0007-31db-8030-8007-308d54f681f6" viewBox="0 0 20 20" xmlns:xlink="http://www.w3.org/1999/xlink" fill="none" version="1.1"><g id="shape-e5dd0007-31db-8030-8007-308d54f681f6" width="16" height="16" class="bi bi-brightness-alt-low" rx="0" ry="0" style="fill: rgb(0, 0, 0);"><g id="shape-e5dd0007-31db-8030-8007-308d54f6c852" style="display: none;"><g class="fills" id="fills-e5dd0007-31db-8030-8007-308d54f6c852"><rect width="20" height="20" x="0" transform="matrix(1.000000, 0.000000, 0.000000, 1.000000, 0.000000, 0.000000)" style="fill: rgb(246, 246, 247); fill-opacity: 1;" ry="0" fill="none" rx="0" y="0"/></g></g><g id="shape-e5dd0007-31db-8030-8007-308d54f705b2"><g class="fills" id="fills-e5dd0007-31db-8030-8007-308d54f705b2"><path d="M10.625,6.875C10.625,7.22021484375,10.345184326171875,7.5,10,7.5C9.654815673828125,7.5,9.375,7.22021484375,9.375,6.875C9.375,6.52978515625,9.654815673828125,6.25,10,6.25C10.345184326171875,6.25,10.625,6.52978515625,10.625,6.875M16.875,14.375C16.529815673828125,14.375,16.25,14.09521484375,16.25,13.75C16.25,13.40478515625,16.529815673828125,13.125,16.875,13.125C17.220184326171875,13.125,17.5,13.40478515625,17.5,13.75C17.5,14.09521484375,17.220184326171875,14.375,16.875,14.375M2.5,13.75C2.5,14.09521484375,2.779815673828125,14.375,3.125,14.375C3.470184326171875,14.375,3.75,14.09521484375,3.75,13.75C3.75,13.40478515625,3.470184326171875,13.125,3.125,13.125C2.779815673828125,13.125,2.5,13.40478515625,2.5,13.75M15.30377197265625,9.3299560546875C15.146820068359375,9.492431640625,14.9144287109375,9.5576171875,14.6959228515625,9.50048828125C14.4774169921875,9.4432373046875,14.3067626953125,9.2725830078125,14.24957275390625,9.0540771484375C14.192352294921875,8.8355712890625,14.257537841796875,8.603271484375,14.420013427734375,8.4461669921875C14.66522216796875,8.2093505859375,15.0550537109375,8.2127685546875,15.296142578125,8.453857421875C15.5372314453125,8.6949462890625,15.540618896484375,9.084716796875,15.30377197265625,9.3299560546875M4.69622802734375,8.4461669921875C4.53375244140625,8.603271484375,4.4686279296875,8.8355712890625,4.52581787109375,9.0540771484375C4.5830078125,9.2725830078125,4.753662109375,9.4432373046875,4.972198486328125,9.50048828125C5.190704345703125,9.5576171875,5.423095703125,9.492431640625,5.579986572265625,9.3299560546875C5.81683349609375,9.084716796875,5.8134765625,8.6949462890625,5.5723876953125,8.453857421875C5.331298828125,8.2127685546875,4.94146728515625,8.2093505859375,4.69622802734375,8.4461669921875M10,8.75C7.23858642578125,8.75,5,10.9886474609375,5,13.75C5,14.09521484375,5.279815673828125,14.375,5.625,14.375L14.375,14.375C14.720184326171875,14.375,15,14.09521484375,15,13.75C15,10.9886474609375,12.76141357421875,8.75,10,8.75M10,10C11.830322265625,9.9993896484375,13.393707275390625,11.3201904296875,13.69873046875,13.125L6.300018310546875,13.125C6.60516357421875,11.3197021484375,8.169189453125,9.998779296875,10,10" style="fill: rgb(246, 246, 247); fill-opacity: 1;"/></g></g></g></svg>