<svg width="20" xmlns="http://www.w3.org/2000/svg" height="20" id="screenshot-e5dd0007-31db-8030-8007-308d54f3e34f" viewBox="0 0 20 20" xmlns:xlink="http://www.w3.org/1999/xlink" fill="none" version="1.1"><g id="shape-e5dd0007-31db-8030-8007-308d54f3e34f" width="16" height="16" class="bi bi-brightness-low" rx="0" ry="0" style="fill: rgb(0, 0, 0);"><g id="shape-e5dd0007-31db-8030-8007-308d54f42dc1" style="display: none;"><g class="fills" id="fills-e5dd0007-31db-8030-8007-308d54f42dc1"><rect width="20" height="20" x="0" transform="matrix(1.000000, 0.000000, 0.000000, 1.000000, 0.000000, 0.000000)" style="fill: rgb(246, 246, 247); fill-opacity: 1;" ry="0" fill="none" rx="0" y="0"/></g></g><g id="shape-e5dd0007-31db-8030-8007-308d54f42dc2"><g class="fills" id="fills-e5dd0007-31db-8030-8007-308d54f42dc2"><path d="M10,13.75003433227539C7.928924560546875,13.75003433227539,6.25,12.07107925415039,6.25,10.00003433227539C6.25,7.928989410400391,7.928924560546875,6.250034332275391,10,6.250034332275391C12.071075439453125,6.250034332275391,13.75,7.928989410400391,13.75,10.00003433227539C13.75,12.07107925415039,12.071075439453125,13.75003433227539,10,13.75003433227539M10,15.00003433227539C12.76141357421875,15.00003433227539,15,12.76138687133789,15,10.00003433227539C15,7.238681793212891,12.76141357421875,5.000034332275391,10,5.000034332275391C7.23858642578125,5.000034332275391,5,7.238681793212891,5,10.00003433227539C5,12.76138687133789,7.23858642578125,15.00003433227539,10,15.00003433227539M10.625,3.1250340938568115C10.625,3.4702489376068115,10.345184326171875,3.7500340938568115,10,3.7500340938568115C9.654815673828125,3.7500340938568115,9.375,3.4702489376068115,9.375,3.1250340938568115C9.375,2.7798192501068115,9.654815673828125,2.5000340938568115,10,2.5000340938568115C10.345184326171875,2.5000340938568115,10.625,2.7798192501068115,10.625,3.1250340938568115M10.625,16.87503433227539C10.625,17.22024917602539,10.345184326171875,17.50003433227539,10,17.50003433227539C9.654815673828125,17.50003433227539,9.375,17.22024917602539,9.375,16.87503433227539C9.375,16.52981948852539,9.654815673828125,16.25003433227539,10,16.25003433227539C10.345184326171875,16.25003433227539,10.625,16.52981948852539,10.625,16.87503433227539M16.875,10.62503433227539C16.529815673828125,10.62503433227539,16.25,10.34524917602539,16.25,10.00003433227539C16.25,9.65481948852539,16.529815673828125,9.37503433227539,16.875,9.37503433227539C17.220184326171875,9.37503433227539,17.5,9.65481948852539,17.5,10.00003433227539C17.5,10.34524917602539,17.220184326171875,10.62503433227539,16.875,10.62503433227539M3.125,10.62503433227539C2.779815673828125,10.62503433227539,2.5,10.34524917602539,2.5,10.00003433227539C2.5,9.65481948852539,2.779815673828125,9.37503433227539,3.125,9.37503433227539C3.470184326171875,9.37503433227539,3.75,9.65481948852539,3.75,10.00003433227539C3.75,10.34524917602539,3.470184326171875,10.62503433227539,3.125,10.62503433227539M15.30377197265625,5.579990386962891C15.146820068359375,5.742465972900391,14.9144287109375,5.807651519775391,14.6959228515625,5.750522613525391C14.4774169921875,5.693271636962891,14.3067626953125,5.522617340087891,14.24957275390625,5.304111480712891C14.192352294921875,5.085605621337891,14.257537841796875,4.853305816650391,14.420013427734375,4.696201324462891C14.66522216796875,4.459384918212891,15.0550537109375,4.462802886962891,15.296142578125,4.703891754150391C15.5372314453125,4.944980621337891,15.540618896484375,5.334751129150391,15.30377197265625,5.579990386962891M5.579986572265625,15.30386734008789C5.423095703125,15.46622085571289,5.190704345703125,15.53128433227539,4.972198486328125,15.47427749633789C4.753662109375,15.41702651977539,4.5830078125,15.24637222290039,4.52581787109375,15.02786636352539C4.4686279296875,14.80936050415039,4.53375244140625,14.57693862915039,4.69622802734375,14.42007827758789C4.94146728515625,14.18326187133789,5.331298828125,14.18655776977539,5.5723876953125,14.42764663696289C5.8134765625,14.66873550415039,5.81683349609375,15.05850601196289,5.579986572265625,15.30386734008789M14.420013427734375,15.30386734008789C14.257537841796875,15.14676284790039,14.192352294921875,14.91446304321289,14.24957275390625,14.69595718383789C14.3067626953125,14.47745132446289,14.4774169921875,14.30679702758789,14.6959228515625,14.24954605102539C14.9144287109375,14.19241714477539,15.146820068359375,14.25760269165039,15.30377197265625,14.42007827758789C15.540618896484375,14.66531753540039,15.5372314453125,15.05508804321289,15.296142578125,15.29617691040039C15.0550537109375,15.53726577758789,14.66522216796875,15.54068374633789,14.420013427734375,15.30386734008789M4.69622802734375,5.579990386962891C4.53375244140625,5.423130035400391,4.4686279296875,5.190708160400391,4.52581787109375,4.972202301025391C4.5830078125,4.753696441650391,4.753662109375,4.583042144775391,4.972198486328125,4.525791168212891C5.190704345703125,4.468784332275391,5.423095703125,4.533847808837891,5.579986572265625,4.696201324462891C5.81683349609375,4.941562652587891,5.8134765625,5.331333160400391,5.5723876953125,5.572422027587891C5.331298828125,5.813510894775391,4.94146728515625,5.816806793212891,4.69622802734375,5.579990386962891" style="fill: rgb(246, 246, 247); fill-opacity: 1;"/></g></g></g></svg>