<svg width="20" xmlns="http://www.w3.org/2000/svg" height="20" id="screenshot-e5dd0007-31db-8030-8007-308e3f07df06" viewBox="0 0 20 20" xmlns:xlink="http://www.w3.org/1999/xlink" fill="none" version="1.1"><g id="shape-e5dd0007-31db-8030-8007-308e3f07df06" width="16" height="16" class="bi bi-spotify" rx="0" ry="0" style="fill: rgb(0, 0, 0);"><g id="shape-e5dd0007-31db-8030-8007-308e3f07df07" style="display: none;"><g class="fills" id="fills-e5dd0007-31db-8030-8007-308e3f07df07"><rect width="20" height="20" x="0" transform="matrix(1.000000, 0.000000, 0.000000, 1.000000, 0.000000, 0.000000)" style="fill: rgb(246, 246, 247); fill-opacity: 1;" ry="0" fill="none" rx="0" y="0"/></g></g><g id="shape-e5dd0007-31db-8030-8007-308e3f07df08"><g class="fills" id="fills-e5dd0007-31db-8030-8007-308e3f07df08"><path d="M10,0C4.4771728515625,0,0,4.47705078125,0,10C0,15.52294921875,4.4771728515625,20,10,20C15.5228271484375,20,20,15.52294921875,20,10C20,4.47705078125,15.5228271484375,0,10,0M14.58624267578125,14.4224853515625C14.4058837890625,14.715576171875,14.0225830078125,14.8077392578125,13.72869873046875,14.6287841796875C11.3800048828125,13.195068359375,8.42498779296875,12.8699951171875,4.943695068359375,13.666259765625C4.60784912109375,13.7427978515625,4.2734375,13.53271484375,4.19683837890625,13.1968994140625C4.1202392578125,12.86102294921875,4.33038330078125,12.5267333984375,4.66619873046875,12.449951171875C8.47625732421875,11.580078125,11.74371337890625,11.9537353515625,14.37872314453125,13.5650634765625C14.6722412109375,13.7449951171875,14.7650146484375,14.1282958984375,14.58624267578125,14.4224853515625M15.80999755859375,11.699951171875C15.58447265625,12.0667724609375,15.10443115234375,12.1815185546875,14.73748779296875,11.9561767578125C12.050018310546875,10.3050537109375,7.9525146484375,9.826171875,4.772491455078125,10.79132080078125C4.3707275390625,10.88671875,3.9639892578125,10.653076171875,3.84423828125,10.25787353515625C3.724365234375,9.8626708984375,3.93280029296875,9.44244384765625,4.32000732421875,9.2987060546875C7.951202392578125,8.197509765625,12.4661865234375,8.731201171875,15.55242919921875,10.62744140625C15.91973876953125,10.8525390625,16.035003662109375,11.33270263671875,15.80999755859375,11.699951171875M15.91497802734375,8.86505126953125C12.6925048828125,6.9500732421875,7.37493896484375,6.773681640625,4.2974853515625,7.70751953125C3.80316162109375,7.85736083984375,3.281005859375,7.5780029296875,3.131256103515625,7.083740234375C2.981414794921875,6.5894775390625,3.260650634765625,6.0673828125,3.75494384765625,5.91748046875C7.286224365234375,4.84619140625,13.158721923828125,5.052490234375,16.869964599609375,7.25494384765625C17.1575927734375,7.425537109375,17.332305908203125,7.7366943359375,17.32843017578125,8.07098388671875C17.324462890625,8.40545654296875,17.14239501953125,8.7122802734375,16.85089111328125,8.87603759765625C16.55938720703125,9.039794921875,16.202545166015625,9.03564453125,15.91497802734375,8.86505126953125" style="fill: rgb(246, 246, 247); fill-opacity: 1;"/></g></g></g></svg>